<svg width="38" height="37" viewBox="0 0 38 37" fill="none" xmlns="http://www.w3.org/2000/svg">
<path d="M17.2177 13.1509C17.6748 12.6994 17.6748 11.9673 17.2177 11.5157C16.7605 11.0642 16.0192 11.0642 15.562 11.5157L9.31828 17.6824C9.08968 17.9082 8.97539 18.2041 8.97539 18.5C8.97539 18.6568 9.00698 18.8062 9.06422 18.9426C9.12135 19.0789 9.20604 19.2067 9.31828 19.3176L15.562 25.4842C16.0192 25.9358 16.7605 25.9358 17.2177 25.4842C17.6748 25.0327 17.6748 24.3006 17.2177 23.8491L12.9724 19.6562H28.0969C28.7434 19.6562 29.2676 19.1386 29.2676 18.5C29.2676 17.8614 28.7434 17.3437 28.0969 17.3437H12.9724L17.2177 13.1509Z" fill="black"/>
</svg>
