<svg width="18" height="23" viewBox="0 0 18 23" fill="none" xmlns="http://www.w3.org/2000/svg">
<path d="M8.8421 11.0526C9.45 11.0526 9.97058 10.836 10.4038 10.4027C10.8371 9.96947 11.0534 9.44926 11.0526 8.8421C11.0526 8.23421 10.836 7.71363 10.4027 7.28037C9.96947 6.8471 9.44926 6.63084 8.8421 6.63158C8.23421 6.63158 7.71363 6.84821 7.28037 7.28147C6.8471 7.71474 6.63084 8.23495 6.63158 8.8421C6.63158 9.45 6.84821 9.97058 7.28147 10.4038C7.71474 10.8371 8.23495 11.0534 8.8421 11.0526ZM8.8421 22.1053C5.87632 19.5816 3.66137 17.2377 2.19726 15.0736C0.733158 12.9095 0.000736842 10.906 0 9.06316C0 6.3 0.889 4.09868 2.667 2.45921C4.445 0.819737 6.50337 0 8.8421 0C11.1816 0 13.2403 0.819737 15.0183 2.45921C16.7963 4.09868 17.6849 6.3 17.6842 9.06316C17.6842 10.9053 16.9518 12.9087 15.4869 15.0736C14.0221 17.2384 11.8072 19.5823 8.8421 22.1053Z" fill="white"/>
</svg>
