<svg width="15" height="15" viewBox="0 0 15 15" fill="none" xmlns="http://www.w3.org/2000/svg">
<path d="M8.97688 3.53251L9.90188 2.60751C10.018 2.49138 10.1558 2.39926 10.3075 2.33641C10.4592 2.27356 10.6217 2.24121 10.7859 2.24121C10.9501 2.24121 11.1127 2.27356 11.2644 2.33641C11.4161 2.39926 11.5539 2.49138 11.67 2.60751L12.5538 3.49126C12.7881 3.72567 12.9197 4.04355 12.9197 4.37501C12.9197 4.70646 12.7881 5.02435 12.5538 5.25876L11.6288 6.18376M8.97688 3.53251L2.96688 9.54188C2.75937 9.7494 2.63148 10.0233 2.60563 10.3156L2.45438 12.0281C2.44625 12.1192 2.4582 12.2109 2.48936 12.2968C2.52053 12.3827 2.57016 12.4608 2.63476 12.5254C2.69936 12.5901 2.77735 12.6398 2.86324 12.671C2.94913 12.7023 3.04083 12.7143 3.13188 12.7063L4.84438 12.555C5.13714 12.5294 5.41154 12.4015 5.61938 12.1938L11.6288 6.18376M8.97688 3.53251L11.6288 6.18376" stroke="#696868" stroke-width="1.5" stroke-linecap="round" stroke-linejoin="round"/>
</svg>
