<svg width="28" height="27" viewBox="0 0 28 27" fill="none" xmlns="http://www.w3.org/2000/svg">
<path d="M14 8.8125C11.4112 8.8125 9.3125 10.9112 9.3125 13.5C9.3125 16.0888 11.4112 18.1875 14 18.1875C16.5888 18.1875 18.6875 16.0888 18.6875 13.5C18.6875 10.9112 16.5888 8.8125 14 8.8125Z" fill="white"/>
<path fill-rule="evenodd" clip-rule="evenodd" d="M14 0.0625C14.5178 0.0625 14.9375 0.482233 14.9375 1V2.60212C20.2302 3.05141 24.4486 7.26977 24.8979 12.5625H26.5C27.0178 12.5625 27.4375 12.9822 27.4375 13.5C27.4375 14.0178 27.0178 14.4375 26.5 14.4375H24.8979C24.4486 19.7302 20.2302 23.9486 14.9375 24.3979V26C14.9375 26.5178 14.5178 26.9375 14 26.9375C13.4822 26.9375 13.0625 26.5178 13.0625 26V24.3979C7.76976 23.9486 3.55141 19.7302 3.10212 14.4375H1.5C0.982233 14.4375 0.5625 14.0178 0.5625 13.5C0.5625 12.9822 0.982233 12.5625 1.5 12.5625H3.10212C3.55141 7.26977 7.76976 3.05141 13.0625 2.60212V1C13.0625 0.482233 13.4822 0.0625 14 0.0625ZM4.9375 13.5C4.9375 18.5051 8.99492 22.5625 14 22.5625C19.0051 22.5625 23.0625 18.5051 23.0625 13.5C23.0625 8.49492 19.0051 4.4375 14 4.4375C8.99492 4.4375 4.9375 8.49492 4.9375 13.5Z" fill="white"/>
</svg>