<svg width="19" height="19" viewBox="0 0 19 19" fill="none" xmlns="http://www.w3.org/2000/svg">
<g clip-path="url(#clip0_134_942)">
<path fill-rule="evenodd" clip-rule="evenodd" d="M14.25 12.6666C14.8799 12.6666 15.484 12.9169 15.9294 13.3623C16.3748 13.8077 16.625 14.4118 16.625 15.0416C16.625 15.6715 16.3748 16.2756 15.9294 16.721C15.484 17.1664 14.8799 17.4166 14.25 17.4166C13.6201 17.4166 13.016 17.1664 12.5706 16.721C12.1252 16.2756 11.875 15.6715 11.875 15.0416C11.875 14.4118 12.1252 13.8077 12.5706 13.3623C13.016 12.9169 13.6201 12.6666 14.25 12.6666ZM12.2708 3.16665C13.2157 3.16665 14.1218 3.54198 14.7899 4.21008C15.458 4.87818 15.8333 5.78431 15.8333 6.72915C15.8333 7.67398 15.458 8.58012 14.7899 9.24821C14.1218 9.91631 13.2157 10.2916 12.2708 10.2916H6.72917C6.20426 10.2916 5.70085 10.5002 5.32968 10.8713C4.95852 11.2425 4.75 11.7459 4.75 12.2708C4.75 12.7957 4.95852 13.2991 5.32968 13.6703C5.70085 14.0415 6.20426 14.25 6.72917 14.25H10.2917C10.5016 14.25 10.703 14.3334 10.8515 14.4819C10.9999 14.6303 11.0833 14.8317 11.0833 15.0416C11.0833 15.2516 10.9999 15.453 10.8515 15.6014C10.703 15.7499 10.5016 15.8333 10.2917 15.8333H6.72917C5.78433 15.8333 4.8782 15.458 4.2101 14.7899C3.542 14.1218 3.16667 13.2156 3.16667 12.2708C3.16667 11.326 3.542 10.4198 4.2101 9.75175C4.8782 9.08365 5.78433 8.70831 6.72917 8.70831H12.2708C12.7957 8.70831 13.2992 8.49979 13.6703 8.12863C14.0415 7.75746 14.25 7.25405 14.25 6.72915C14.25 6.20424 14.0415 5.70083 13.6703 5.32966C13.2992 4.9585 12.7957 4.74998 12.2708 4.74998H8.70833C8.49837 4.74998 8.29701 4.66657 8.14854 4.51811C8.00007 4.36964 7.91667 4.16828 7.91667 3.95831C7.91667 3.74835 8.00007 3.54699 8.14854 3.39852C8.29701 3.25005 8.49837 3.16665 8.70833 3.16665H12.2708ZM14.25 14.25C14.04 14.25 13.8387 14.3334 13.6902 14.4819C13.5417 14.6303 13.4583 14.8317 13.4583 15.0416C13.4583 15.2516 13.5417 15.453 13.6902 15.6014C13.8387 15.7499 14.04 15.8333 14.25 15.8333C14.46 15.8333 14.6613 15.7499 14.8098 15.6014C14.9583 15.453 15.0417 15.2516 15.0417 15.0416C15.0417 14.8317 14.9583 14.6303 14.8098 14.4819C14.6613 14.3334 14.46 14.25 14.25 14.25ZM4.75 1.58331C5.37989 1.58331 5.98398 1.83354 6.42938 2.27893C6.87478 2.72433 7.125 3.32842 7.125 3.95831C7.125 4.5882 6.87478 5.19229 6.42938 5.63769C5.98398 6.08309 5.37989 6.33331 4.75 6.33331C4.12011 6.33331 3.51602 6.08309 3.07062 5.63769C2.62522 5.19229 2.375 4.5882 2.375 3.95831C2.375 3.32842 2.62522 2.72433 3.07062 2.27893C3.51602 1.83354 4.12011 1.58331 4.75 1.58331ZM4.75 3.16665C4.54004 3.16665 4.33867 3.25005 4.19021 3.39852C4.04174 3.54699 3.95833 3.74835 3.95833 3.95831C3.95833 4.16828 4.04174 4.36964 4.19021 4.51811C4.33867 4.66657 4.54004 4.74998 4.75 4.74998C4.95996 4.74998 5.16133 4.66657 5.30979 4.51811C5.45826 4.36964 5.54167 4.16828 5.54167 3.95831C5.54167 3.74835 5.45826 3.54699 5.30979 3.39852C5.16133 3.25005 4.95996 3.16665 4.75 3.16665Z" fill="#5038BC"/>
</g>
<defs>
<clipPath id="clip0_134_942">
<rect width="19" height="19" fill="white"/>
</clipPath>
</defs>
</svg>
